REM DIRINDEX 1\2,1\3,1\4
REM DIRNAME cjc151,folder01,folder02,folder03
TITLE ""
FILE "157 157_CHAPTER 4_Lesson 1_TOEFL_3900.mp3" MP3
  TRACK 01 AUDIO
    TITLE "4:cjc151_6835"
    INDEX 01 00:00:00
  TRACK 02 AUDIO
    TITLE "0:"
    INDEX 01 00:01:40
  TRACK 03 AUDIO
    TITLE "4:cjc151_6836"
    INDEX 01 00:02:14
  TRACK 04 AUDIO
    TITLE "0:"
    INDEX 01 00:03:47
  TRACK 05 AUDIO
    TITLE "2:cjc151_6837"
    INDEX 01 00:04:19
  TRACK 06 AUDIO
    TITLE "0:"
    INDEX 01 00:05:56
  TRACK 07 AUDIO
    TITLE "3:cjc151_6838"
    INDEX 01 00:07:35
  TRACK 08 AUDIO
    TITLE "0:"
    INDEX 01 00:11:31
  TRACK 09 AUDIO
    TITLE "2:cjc151_6839"
    INDEX 01 00:13:10
  TRACK 10 AUDIO
    TITLE "0:"
    INDEX 01 00:14:11
  TRACK 11 AUDIO
    TITLE "3:cjc151_6840"
    INDEX 01 00:15:66
  TRACK 12 AUDIO
    TITLE "0:"
    INDEX 01 00:19:42
  TRACK 13 AUDIO
    TITLE "2:cjc151_6841"
    INDEX 01 00:21:19
  TRACK 14 AUDIO
    TITLE "0:"
    INDEX 01 00:22:27
  TRACK 15 AUDIO
    TITLE "3:cjc151_6842"
    INDEX 01 00:24:04
  TRACK 16 AUDIO
    TITLE "0:"
    INDEX 01 00:28:49
  TRACK 17 AUDIO
    TITLE "2:cjc151_6843"
    INDEX 01 00:30:26
  TRACK 18 AUDIO
    TITLE "0:"
    INDEX 01 00:31:41
  TRACK 19 AUDIO
    TITLE "3:cjc151_6844"
    INDEX 01 00:33:30
  TRACK 20 AUDIO
    TITLE "0:"
    INDEX 01 00:37:36
  TRACK 21 AUDIO
    TITLE "2:cjc151_6845"
    INDEX 01 00:39:33
  TRACK 22 AUDIO
    TITLE "0:"
    INDEX 01 00:40:60
  TRACK 23 AUDIO
    TITLE "3:cjc151_6846"
    INDEX 01 00:42:37
  TRACK 24 AUDIO
    TITLE "0:"
    INDEX 01 00:46:33
  TRACK 25 AUDIO
    TITLE "2:cjc151_6847"
    INDEX 01 00:48:12
  TRACK 26 AUDIO
    TITLE "0:"
    INDEX 01 00:49:14
  TRACK 27 AUDIO
    TITLE "3:cjc151_6848"
    INDEX 01 00:50:68
  TRACK 28 AUDIO
    TITLE "0:"
    INDEX 01 00:54:74
  TRACK 29 AUDIO
    TITLE "2:cjc151_6849"
    INDEX 01 00:56:53
  TRACK 30 AUDIO
    TITLE "0:"
    INDEX 01 00:57:54
  TRACK 31 AUDIO
    TITLE "3:cjc151_6850"
    INDEX 01 00:59:34
  TRACK 32 AUDIO
    TITLE "0:"
    INDEX 01 01:03:08
  TRACK 33 AUDIO
    TITLE "2:cjc151_6851"
    INDEX 01 01:04:62
  TRACK 34 AUDIO
    TITLE "0:"
    INDEX 01 01:06:12
  TRACK 35 AUDIO
    TITLE "3:cjc151_6852"
    INDEX 01 01:07:63
  TRACK 36 AUDIO
    TITLE "0:"
    INDEX 01 01:12:60
  TRACK 37 AUDIO
    TITLE "2:cjc151_6853"
    INDEX 01 01:14:37
  TRACK 38 AUDIO
    TITLE "0:"
    INDEX 01 01:15:68
  TRACK 39 AUDIO
    TITLE "3:cjc151_6854"
    INDEX 01 01:17:45
  TRACK 40 AUDIO
    TITLE "0:"
    INDEX 01 01:21:08
  TRACK 41 AUDIO
    TITLE "2:cjc151_6855"
    INDEX 01 01:22:62
  TRACK 42 AUDIO
    TITLE "0:"
    INDEX 01 01:23:73
  TRACK 43 AUDIO
    TITLE "3:cjc151_6856"
    INDEX 01 01:25:53
  TRACK 44 AUDIO
    TITLE "0:"
    INDEX 01 01:30:13
  TRACK 45 AUDIO
    TITLE "2:cjc151_6857"
    INDEX 01 01:31:69
  TRACK 46 AUDIO
    TITLE "0:"
    INDEX 01 01:32:60
  TRACK 47 AUDIO
    TITLE "3:cjc151_6858"
    INDEX 01 01:34:38
  TRACK 48 AUDIO
    TITLE "0:"
    INDEX 01 01:39:08
  TRACK 49 AUDIO
    TITLE "2:cjc151_6859"
    INDEX 01 01:40:62
  TRACK 50 AUDIO
    TITLE "0:"
    INDEX 01 01:41:63
  TRACK 51 AUDIO
    TITLE "3:cjc151_6860"
    INDEX 01 01:43:43
  TRACK 52 AUDIO
    TITLE "0:"
    INDEX 01 01:47:19
  TRACK 53 AUDIO
    TITLE "2:cjc151_6861"
    INDEX 01 01:49:02
  TRACK 54 AUDIO
    TITLE "0:"
    INDEX 01 01:50:00
  TRACK 55 AUDIO
    TITLE "3:cjc151_6862"
    INDEX 01 01:51:54
  TRACK 56 AUDIO
    TITLE "0:"
    INDEX 01 01:55:05
  TRACK 57 AUDIO
    TITLE "2:cjc151_6863"
    INDEX 01 01:56:59
  TRACK 58 AUDIO
    TITLE "0:"
    INDEX 01 01:57:47
  TRACK 59 AUDIO
    TITLE "3:cjc151_6864"
    INDEX 01 01:59:28
  TRACK 60 AUDIO
    TITLE "0:"
    INDEX 01 02:03:45
  TRACK 61 AUDIO
    TITLE "2:cjc151_6865"
    INDEX 01 02:05:25
  TRACK 62 AUDIO
    TITLE "0:"
    INDEX 01 02:06:14
  TRACK 63 AUDIO
    TITLE "3:cjc151_6866"
    INDEX 01 02:07:73
  TRACK 64 AUDIO
    TITLE "0:"
    INDEX 01 02:11:66
  TRACK 65 AUDIO
    TITLE "2:cjc151_6867"
    INDEX 01 02:13:44
  TRACK 66 AUDIO
    TITLE "0:"
    INDEX 01 02:14:61
  TRACK 67 AUDIO
    TITLE "3:cjc151_6868"
    INDEX 01 02:16:38
  TRACK 68 AUDIO
    TITLE "0:"
    INDEX 01 02:20:69
  TRACK 69 AUDIO
    TITLE "2:cjc151_6869"
    INDEX 01 02:22:47
  TRACK 70 AUDIO
    TITLE "0:"
    INDEX 01 02:23:52
  TRACK 71 AUDIO
    TITLE "3:cjc151_6870"
    INDEX 01 02:25:31
  TRACK 72 AUDIO
    TITLE "0:"
    INDEX 01 02:29:27
  TRACK 73 AUDIO
    TITLE "2:cjc151_6871"
    INDEX 01 02:31:04
  TRACK 74 AUDIO
    TITLE "0:"
    INDEX 01 02:32:06
  TRACK 75 AUDIO
    TITLE "3:cjc151_6872"
    INDEX 01 02:33:72
  TRACK 76 AUDIO
    TITLE "0:"
    INDEX 01 02:37:42
  TRACK 77 AUDIO
    TITLE "2:cjc151_6873"
    INDEX 01 02:39:20
  TRACK 78 AUDIO
    TITLE "0:"
    INDEX 01 02:40:58
  TRACK 79 AUDIO
    TITLE "3:cjc151_6874"
    INDEX 01 02:42:42
  TRACK 80 AUDIO
    TITLE "0:"
    INDEX 01 02:47:25
  TRACK 81 AUDIO
    TITLE "2:cjc151_6875"
    INDEX 01 02:49:18
  TRACK 82 AUDIO
    TITLE "0:"
    INDEX 01 02:50:25
  TRACK 83 AUDIO
    TITLE "3:cjc151_6876"
    INDEX 01 02:52:03
  TRACK 84 AUDIO
    TITLE "0:"
    INDEX 01 02:56:48
  TRACK 85 AUDIO
    TITLE "2:cjc151_6877"
    INDEX 01 02:58:27
  TRACK 86 AUDIO
    TITLE "0:"
    INDEX 01 02:59:18
  TRACK 87 AUDIO
    TITLE "3:cjc151_6878"
    INDEX 01 03:00:73
  TRACK 88 AUDIO
    TITLE "0:"
    INDEX 01 03:04:27
  TRACK 89 AUDIO
    TITLE "2:cjc151_6879"
    INDEX 01 03:06:03
  TRACK 90 AUDIO
    TITLE "0:"
    INDEX 01 03:07:08
  TRACK 91 AUDIO
    TITLE "3:cjc151_6880"
    INDEX 01 03:08:62
  TRACK 92 AUDIO
    TITLE "0:"
    INDEX 01 03:13:11
